Coordinates
version=1
nRows=9
nColumns=24
inDegrees=yes

Units are S.I. units (second, meters, Newtons, ...)
Angles are in degrees.

endheader
time	pelvis_tilt	pelvis_list	pelvis_rotation	pelvis_tx	pelvis_ty	pelvis_tz	hip_flexion_r	hip_adduction_r	hip_rotation_r	knee_angle_r	ankle_angle_r	subtalar_angle_r	mtp_angle_r	hip_flexion_l	hip_adduction_l	hip_rotation_l	knee_angle_l	ankle_angle_l	subtalar_angle_l	mtp_angle_l	lumbar_extension	lumbar_bending	lumbar_rotation
      1.71650000	     -1.67405536	      2.38975807	     -5.74246965	      1.30839272	      0.99585115	      0.33456076	     21.92407990	     -6.86138184	     -2.33395616	    -78.68346768	     -2.78430638	     -0.87671002	      4.59611231	     19.48245222	      2.30454251	     -9.26297249	    -20.67967380	      2.27441010	    -11.71181062	     -1.42488134	     -9.13307026	     -6.25042525	      4.34058441
      1.72066667	     -1.56571117	      2.24820799	     -5.37553486	      1.31318032	      0.99733607	      0.33356741	     22.46778787	     -6.75158750	     -2.72346852	    -78.61037404	     -2.40648810	     -0.86530953	      4.57372994	     18.88098168	      2.36434368	     -8.92780217	    -20.29453299	      2.30190240	    -11.59998705	     -1.39049812	     -9.33800343	     -6.00091871	      3.98499352
      1.72483333	     -1.46855509	      2.14894121	     -5.03951679	      1.31796500	      0.99874404	      0.33264992	     23.03424218	     -6.68327293	     -3.07424976	    -78.51718798	     -2.01044847	     -0.79278625	      4.55806093	     18.28265950	      2.44704501	     -8.64154134	    -19.89937780	      2.40955459	    -11.41192918	     -1.36344555	     -9.52025842	     -5.81259601	      3.72467814
      1.72900000	     -1.32850157	      2.00070085	     -4.65731207	      1.32276543	      1.00025849	      0.33160128	     23.50825822	     -6.60210905	     -3.50207524	    -78.34101874	     -1.64808063	     -0.79531760	      4.53105345	     17.63529789	      2.49886744	     -8.29268892	    -19.49388966	      2.45353155	    -11.29489176	     -1.32967678	     -9.75377071	     -5.53213420	      3.36285540
      1.73316667	     -1.20171243	      1.88012729	     -4.30658539	      1.32751224	      1.00169576	      0.33064065	     24.01021425	     -6.53880575	     -3.89088300	    -78.14495542	     -1.27669228	     -0.78139971	      4.49746560	     16.99966847	      2.55936985	     -7.97256064	    -19.07307623	      2.49222081	    -11.19025975	     -1.29333590	     -9.96700050	     -5.29860696	      3.03319463
      1.73733333	     -1.06059066	      1.72973580	     -3.95019808	      1.33224576	      1.00316154	      0.32967358	     24.47079910	     -6.45188808	     -4.30094423	    -77.88399794	     -0.94406013	     -0.81602082	      4.45434862	     16.34836881	      2.58434929	     -7.64092326	    -18.65716562	      2.53309118	    -11.08924472	     -1.25385639	    -10.20097729	     -5.02573295	      2.72600392
      1.74150000	     -0.91495110	      1.59633919	     -3.60285238	      1.33694544	      1.00460392	      0.32871638	     24.92210130	     -6.39148084	     -4.70518834	    -77.58519245	     -0.62516893	     -0.84555090	      4.39675751	     15.68484101	      2.62250362	     -7.30265765	    -18.21776180	      2.53477499	    -11.03665816	     -1.20846359	    -10.43635135	     -4.77268854	      2.41476522
      1.74566667	     -0.78941959	      1.47299878	     -3.29747069	      1.34163629	      1.00598187	      0.32788501	     25.39518880	     -6.31979049	     -5.06713265	    -77.24936429	     -0.29450316	     -0.87329268	      4.34243476	     15.03702764	      2.64519182	     -7.01461772	    -17.77068567	      2.58456896	    -10.93758237	     -1.16804687	    -10.64020888	     -4.54962670	      2.17690225
      1.74983333	     -0.63070895	      1.35675927	     -2.99209076	      1.34633042	      1.00739217	      0.32704667	     25.81766974	     -6.26617110	     -5.43132601	    -76.87004258	      0.00998976	     -0.93272179	      4.27701852	     14.34278440	      2.67537258	     -6.72483150	    -17.29281695	      2.58071795	    -10.89627270	     -1.12556524	    -10.88424366	     -4.31512890	      1.91503271
